<svg id="visual" viewBox="0 0 2500 400" width="2500" height="400" xmlns="http://www.w3.org/2000/svg" xmlns:xlink="http://www.w3.org/1999/xlink" version="1.1"><path d="M0 297L59.5 290.8C119 284.7 238 272.3 357 263.2C476 254 595 248 714 254.7C833 261.3 952 280.7 1071.2 286C1190.3 291.3 1309.7 282.7 1428.8 271.7C1548 260.7 1667 247.3 1786 243C1905 238.7 2024 243.3 2143 249.8C2262 256.3 2381 264.7 2440.5 268.8L2500 273L2500 401L2440.5 401C2381 401 2262 401 2143 401C2024 401 1905 401 1786 401C1667 401 1548 401 1428.8 401C1309.7 401 1190.3 401 1071.2 401C952 401 833 401 714 401C595 401 476 401 357 401C238 401 119 401 59.5 401L0 401Z" fill="#6366f1"></path><path d="M0 317L59.5 309.7C119 302.3 238 287.7 357 282.3C476 277 595 281 714 289.7C833 298.3 952 311.7 1071.2 312.8C1190.3 314 1309.7 303 1428.8 301.5C1548 300 1667 308 1786 310.2C1905 312.3 2024 308.7 2143 306.5C2262 304.3 2381 303.7 2440.5 303.3L2500 303L2500 401L2440.5 401C2381 401 2262 401 2143 401C2024 401 1905 401 1786 401C1667 401 1548 401 1428.8 401C1309.7 401 1190.3 401 1071.2 401C952 401 833 401 714 401C595 401 476 401 357 401C238 401 119 401 59.5 401L0 401Z" fill="#5453d6"></path><path d="M0 322L59.5 326C119 330 238 338 357 339C476 340 595 334 714 334.7C833 335.3 952 342.7 1071.2 341C1190.3 339.3 1309.7 328.7 1428.8 327.7C1548 326.7 1667 335.3 1786 333.8C1905 332.3 2024 320.7 2143 314.3C2262 308 2381 307 2440.5 306.5L2500 306L2500 401L2440.5 401C2381 401 2262 401 2143 401C2024 401 1905 401 1786 401C1667 401 1548 401 1428.8 401C1309.7 401 1190.3 401 1071.2 401C952 401 833 401 714 401C595 401 476 401 357 401C238 401 119 401 59.5 401L0 401Z" fill="#4641bc"></path><path d="M0 379L59.5 374C119 369 238 359 357 358.3C476 357.7 595 366.3 714 369.2C833 372 952 369 1071.2 365.8C1190.3 362.7 1309.7 359.3 1428.8 360.8C1548 362.3 1667 368.7 1786 366.2C1905 363.7 2024 352.3 2143 347C2262 341.7 2381 342.3 2440.5 342.7L2500 343L2500 401L2440.5 401C2381 401 2262 401 2143 401C2024 401 1905 401 1786 401C1667 401 1548 401 1428.8 401C1309.7 401 1190.3 401 1071.2 401C952 401 833 401 714 401C595 401 476 401 357 401C238 401 119 401 59.5 401L0 401Z" fill="#3730a3"></path></svg>